<svg viewBox="0 0 1024 1024" version="1.1" xmlns="http://www.w3.org/2000/svg" p-id="2151"><path d="M0 0m113.777778 0l796.444444 0q113.777778 0 113.777778 113.777778l0 796.444444q0 113.777778-113.777778 113.777778l-796.444444 0q-113.777778 0-113.777778-113.777778l0-796.444444q0-113.777778 113.777778-113.777778Z" fill="#DAAFB8" p-id="2152"></path><path d="M603.363556 619.861333s5.499259-46.26963 6.78874-49.607111c-2.23763 1.592889-8.419556 4.93037-10.581333 6.637037-13.729185 10.884741-49.910519 14.601481-86.812444 13.767111-36.901926 0.83437-73.083259-2.88237-86.774519-13.767111-2.161778-1.706667-8.38163-5.044148-10.581333-6.637037 1.289481 3.337481 6.788741 49.645037 6.750814 49.607111 1.365333 84.726519-14.108444 96.862815-21.807407 124.738371 24.538074 44.069926 60.150519 86.888296 84.688593 130.958222 5.30963 9.519407 16.801185 11.719111 24.310518 18.62163v3.792592l2.654815 1.289482c0.265481-0.455111 0.530963-0.83437 0.796444-1.251556a14.032593 14.032593 0 0 1 0.796445 1.251556l2.654815-1.289482v-3.792592c7.585185-6.902519 18.962963-9.102222 24.310518-18.62163 24.538074-44.069926 60.150519-86.888296 84.688593-130.958222-7.774815-27.799704-23.210667-40.011852-21.883259-124.738371z" fill="#FED0B9" p-id="2153"></path><path d="M682.287407 428.335407c-11.681185 5.726815-18.090667 10.353778-23.210666 22.376297 14.677333-64.853333 9.253926-136.950519-48.052148-169.642667-60.150519-34.133333-159.895704-33.033481-211.702519 12.932741-34.133333 30.340741-59.998815 91.591111-35.00563 156.709926-5.613037-11.377778-10.277926-23.172741-23.058963-22.376297-40.429037 2.503111-31.326815 51.693037-21.731555 70.162963s27.951407 32.805926 48.583111 33.678223a11.681185 11.681185 0 0 1 7.130074 1.706666 9.860741 9.860741 0 0 1 2.654815 4.702815c10.733037 32.616296 20.745481 59.847111 48.583111 82.337185s65.156741 37.394963 101.906963 31.288889c43.463111-7.205926 87.722667-34.853926 103.348148-77.748148 4.816593-13.274074 3.299556-32.730074 17.559704-40.315259a24.272593 24.272593 0 0 1 8.229926-2.010074c21.200593-3.299556 37.925926-18.773333 47.179852-37.546667a80.971852 80.971852 0 0 0 8.495407-42.666667c-1.403259-17.521778-19.418074-29.240889-30.90963-23.589926z" fill="#FEE1D2" p-id="2154"></path><path d="M610.11437 697.040593c-5.006222 18.962963-57.950815 89.960296-82.602666 122.386963a16.421926 16.421926 0 0 1-25.751704 0.568888c-26.851556-32.161185-85.105778-104.068741-86.357333-122.955851-135.698963 19.759407-261.461333 119.125333-261.461334 238.667851V1024h717.672297s2.427259-41.301333 0-107.254519c-4.437333-119.466667-125.800296-199.945481-261.49926-219.704888z" fill="#F195AE" p-id="2155"></path><path d="M512.530963 199.149037c-221.904593 0-174.459259 227.555556-174.459259 227.555556a42.552889 42.552889 0 0 1 28.444444 23.893333l18.697482-59.278222a579.887407 579.887407 0 0 0 127.431111 11.984592 580.001185 580.001185 0 0 0 127.469037-11.984592l18.697481 59.278222a42.552889 42.552889 0 0 1 28.444445-23.893333s43.994074-227.555556-174.724741-227.555556z" fill="#6477B3" p-id="2156"></path><path d="M509.724444 870.703407c34.702222 2.275556 122.88-124.055704 149.617778-163.612444a458.069333 458.069333 0 0 0-49.303703-10.05037c-5.006222 18.962963-57.950815 89.960296-82.602667 122.386963a16.421926 16.421926 0 0 1-25.751704 0.568888c-26.851556-32.161185-85.105778-104.068741-86.357333-122.955851a356.503704 356.503704 0 0 0-46.193778 9.974518c23.248593 36.333037 105.434074 161.488593 140.591407 163.688296z" fill="#FFFFFF" p-id="2157"></path></svg>