<svg viewBox="0 0 1024 1024" version="1.1" xmlns="http://www.w3.org/2000/svg" p-id="2250"><path d="M0 0m113.777778 0l796.444444 0q113.777778 0 113.777778 113.777778l0 796.444444q0 113.777778-113.777778 113.777778l-796.444444 0q-113.777778 0-113.777778-113.777778l0-796.444444q0-113.777778 113.777778-113.777778Z" fill="#ED8888" p-id="2251"></path><path d="M767.241481 829.022815c-2.048-19.911111 1.175704-4.209778-1.213629-24.082963-8.571259-71.338667-17.180444-93.297778-21.69363-165.05363-7.812741-125.155556 11.377778-280.348444-91.894518-373.76-52.906667-47.93837-131.299556-64.208593-199.566223-45.093926C307.768889 261.688889 288.843852 422.646519 283.534222 549.925926c-1.251556 30.037333-1.972148 60.150519-3.792592 90.149926-4.475259 71.755852-13.084444 93.714963-21.69363 165.053629-2.389333 19.873185 0.83437 4.171852-1.175704 24.082963-2.23763 21.617778 8.343704 25.78963 3.792593 46.990223-2.920296 13.008593 506.159407 13.008593 503.239111 0-5.044148-21.390222 5.537185-25.562074 3.337481-47.179852z" fill="#7D4E3C" p-id="2252"></path><path d="M344.784593 509.003852c13.50163 26.889481 32.009481 50.782815 45.928296 27.761778 7.964444-13.160296 2.23763-31.326815-2.427259-44.525037-4.096-11.605333-5.30963-29.165037-12.288-39.063704-11.946667-16.877037-54.044444-18.962963-49.000297 9.709037a231.765333 231.765333 0 0 0 17.78726 46.117926zM678.115556 509.003852c-13.50163 26.889481-32.009481 50.782815-45.928297 27.761778-7.964444-13.160296-2.23763-31.326815 2.42726-44.525037 4.096-11.605333 5.30963-29.165037 12.288-39.063704 11.946667-16.877037 54.044444-18.962963 49.000296 9.709037a231.765333 231.765333 0 0 1-17.787259 46.117926z" fill="#FCD6BD" p-id="2253"></path><path d="M597.485037 617.28237s5.195852-46.26963 6.409482-49.607111c-2.085926 1.592889-7.964444 4.93037-10.012445 6.674963-12.932741 10.846815-47.066074 14.563556-81.882074 13.729185-34.816 0.83437-68.949333-2.88237-81.882074-13.729185-2.048-1.744593-7.888593-5.082074-9.974519-6.674963 1.21363 3.337481 6.409481 49.645037 6.371556 49.607111 1.251556 84.726519-13.312 96.900741-20.593778 124.738371 23.172741 44.069926 56.888889 86.888296 79.947852 130.958222 4.968296 9.519407 15.853037 11.719111 22.755556 18.659556v3.792592l2.541037 1.289482 0.720592-1.21363a13.084444 13.084444 0 0 1 0.758519 1.21363l2.503111-1.289482v-3.792592c7.092148-6.940444 17.938963-9.140148 22.945185-18.659556 23.134815-44.069926 56.888889-86.888296 79.909926-130.958222-7.205926-27.83763-21.769481-40.011852-20.517926-124.738371z" fill="#F5C4A5" p-id="2254"></path><path d="M380.965926 547.157333c15.17037 45.018074 49.303704 89.315556 100.16237 104.865186 58.254222 17.711407 110.554074-9.557333 139.112297-54.044445 29.961481-46.762667 32.881778-123.941926 25.258666-176.355555-5.461333-37.925926-19.493926-77.937778-54.272-99.821038-24.462222-15.435852-56.206222-19.380148-85.750518-15.473777s-57.344 15.17037-83.664593 27.723852c-24.917333 12.022519-40.656593 37.091556-47.521185 62.008888a126.407111 126.407111 0 0 0-3.527111 31.819852c-0.530963 33.526519-1.251556 84.992 10.202074 119.277037z" fill="#FCD6BD" p-id="2255"></path><path d="M623.085037 257.896296c-9.936593-5.499259-25.069037-15.473778-37.622518-13.425777a4.626963 4.626963 0 0 1-5.575112-2.123852c-7.585185-8.533333-51.2-24.120889-67.166814-24.158815-26.548148 0-54.006519 3.299556-78.165334 14.487704-34.133333 15.777185-77.710222 47.29363-91.439407 93.335703-6.902519 22.907259-16.952889 69.404444-8.002371 115.863704 0.796444 4.058074 3.375407-2.010074 10.277926 2.010074a49.303704 49.303704 0 0 1 21.807408 27.913482c-0.530963-34.853926 42.590815-43.19763 67.128889-55.67526A782.639407 782.639407 0 0 0 530.962963 357.831111c15.17037-10.581333 34.702222-25.751704 46.497185-39.670518 5.650963 20.555852 18.62163 38.153481 29.733926 56.32 18.24237 29.923556 36.826074 61.895111 36.02963 97.962666 5.271704-8.609185 9.064296-17.370074 14.715259-25.486222 1.137778-1.592889 2.351407-3.185778 3.792593-4.740741 5.044148-5.95437 13.918815-7.585185 17.445925-1.327407 13.084444-72.590222 7.281778-147.911111-56.092444-182.992593z" fill="#7D4E3C" p-id="2256"></path><path d="M304.886519 1023.355259h382.672592v-307.768889l-177.114074 46.004149-138.581333-63.563852-66.977185 325.328592z" fill="#EAE0EB" p-id="2257"></path><path d="M336.630519 715.58637c8.00237-3.792593 26.548148-13.349926 34.664296-18.090666a34.436741 34.436741 0 0 1 20.176592-4.361482 4.702815 4.702815 0 0 1 2.313482 0.986074 5.840593 5.840593 0 0 1 1.441185 3.792593c1.024 8.988444 34.62637 17.976889 35.65037 26.965333 0 0 71.452444 286.90963 70.997334 298.363259H158.302815c6.030222-53.854815 1.896296-180.489481 37.925926-237.985185 12.894815-20.593778 44.373333-41.035852 66.977185-47.028148 19.304296-5.044148 63.791407-18.014815 73.424593-22.641778zM687.748741 715.58637c-8.040296-3.792593-26.548148-13.349926-34.664297-18.090666a34.512593 34.512593 0 0 0-20.176592-4.361482 4.816593 4.816593 0 0 0-2.351408 0.986074 6.219852 6.219852 0 0 0-1.441185 3.792593c-1.024 8.988444-42.514963 17.976889-43.538963 26.965333 0 0-50.896593 286.90963-50.441481 298.363259h330.903704c-5.992296-53.854815-1.85837-180.489481-37.925926-237.985185-12.932741-20.593778-44.373333-41.035852-67.015112-47.028148-19.228444-5.044148-63.715556-18.014815-73.34874-22.641778z" fill="#5C6A94" p-id="2258"></path><path d="M426.704593 649.253926c-0.606815 31.744 13.539556 62.957037 36.636444 86.129778a154.699852 154.699852 0 0 0 44.487111 29.658074c3.792593 1.592889 18.394074 6.144 6.181926 16.270222-10.695111 8.912593-37.015704 74.448593-37.015704 74.448593s-49.303704-48.052148-55.864889-56.888889c-11.112296-15.473778-20.062815-28.330667-29.923555-44.487111A177.531259 177.531259 0 0 1 373.532444 709.214815s39.518815-44.107852 46.26963-59.885037" fill="#FFFFFF" p-id="2259"></path><path d="M597.105778 649.140148a120.566519 120.566519 0 0 1-36.067556 86.243556 155.723852 155.723852 0 0 1-44.487111 29.658074c-3.792593 1.592889-16.308148 9.822815-4.096 19.949037 10.733037 8.950519 31.364741 73.121185 31.364741 73.121185s53.096296-50.403556 59.429926-59.240296c11.112296-15.473778 20.062815-28.330667 29.923555-44.487111A176.696889 176.696889 0 0 0 650.808889 709.214815s-30.72-43.994074-47.748741-59.885037" fill="#FFFFFF" p-id="2260"></path><path d="M516.702815 767.886222s46.345481-39.480889 76.686222-45.511111c0 0 18.24237 32.654222 16.725333 56.888889s-25.069037 53.096296-25.069037 53.096296a241.170963 241.170963 0 0 1-37.015703-22.983111 348.918519 348.918519 0 0 1-32.843852-28.672" fill="#42507A" p-id="2261"></path><path d="M516.702815 763.335111s46.345481-39.518815 76.686222-45.511111c0 0 18.24237 32.654222 16.725333 56.888889s-25.069037 53.096296-25.069037 53.096296a242.460444 242.460444 0 0 1-37.015703-22.945185 355.176296 355.176296 0 0 1-32.843852-28.672" fill="#5C6A94" p-id="2262"></path><path d="M525.842963 765.838222s70.618074-2.275556 69.328593-9.102222-69.328593 9.102222-69.328593 9.102222zM518.97837 772.816593s44.980148 18.24237 47.028149 11.681185-47.028148-11.681185-47.028149-11.681185zM507.448889 767.886222s-46.345481-39.480889-76.724148-45.511111c0 0-18.204444 32.654222-16.687408 56.888889s25.069037 53.096296 25.069037 53.096296a241.170963 241.170963 0 0 0 37.015704-22.983111 348.918519 348.918519 0 0 0 32.843852-28.672" fill="#42507A" p-id="2263"></path><path d="M507.448889 763.335111s-46.345481-39.518815-76.724148-45.511111c0 0-18.204444 32.654222-16.687408 56.888889s25.069037 53.096296 25.069037 53.096296a242.460444 242.460444 0 0 0 37.015704-22.945185 355.176296 355.176296 0 0 0 32.843852-28.672" fill="#5C6A94" p-id="2264"></path><path d="M498.308741 765.838222s-70.618074-2.275556-69.328593-9.102222 69.328593 9.102222 69.328593 9.102222zM505.173333 772.816593s-64.70163 27.382519-66.446222 20.631703 66.446222-20.631704 66.446222-20.631703z" fill="#42507A" p-id="2265"></path><path d="M501.532444 753.929481m9.633186 0l3.90637 0q9.633185 0 9.633185 9.633186l0 13.842963q0 9.633185-9.633185 9.633185l-3.90637 0q-9.633185 0-9.633186-9.633185l0-13.842963q0-9.633185 9.633186-9.633186Z" fill="#42507A" p-id="2266"></path><path d="M501.532444 755.029333m9.633186 0l3.90637 0q9.633185 0 9.633185 9.633186l0 10.467555q0 9.633185-9.633185 9.633185l-3.90637 0q-9.633185 0-9.633186-9.633185l0-10.467555q0-9.633185 9.633186-9.633186Z" fill="#5C6A94" p-id="2267"></path><path d="M637.76237 886.897778H728.177778v16.156444h-90.415408z" fill="#42507A" p-id="2268"></path></svg>